<svg id="icons" enable-background="new 0 0 64 64" height="30pt" viewBox="0 0 64 64" width="30pt"  xmlns="http://www.w3.org/2000/svg"><g><g><path d="" style="fill:#777;stroke:rgb(0,0,0);stroke-width:2;stroke-linecap:round;stroke-linejoin:round;stroke-miterlimit:10"/></g><g><g><g><path d="m37.999 11.501c-4.411 0-8-3.589-8-8 0-.552.448-1 1-1 .553 0 1 .448 1 1 0 3.309 2.691 6 6 6 1.626 0 3.149-.64 4.288-1.802.387-.394 1.019-.4 1.414-.015.395.387.4 1.02.014 1.414-1.518 1.549-3.548 2.403-5.716 2.403z"/></g><g><path d="m47.002 45.89c-.146 0-.296-.032-.437-.101-5.9-2.873-9.566-8.731-9.566-15.289 0-6.557 3.664-12.417 9.562-15.292.501-.243 1.096-.035 1.337.461.242.496.036 1.095-.46 1.337-5.205 2.537-8.438 7.708-8.438 13.494s3.234 10.955 8.441 13.49c.497.242.703.841.462 1.337-.174.356-.53.563-.901.563z"/></g><g><path d="m24.002 59.497c-.181 0-.363-.049-.528-.151-.469-.292-.612-.909-.32-1.378 3.356-5.383 8.768-8.471 14.846-8.471 2.203 0 4.35.416 6.378 1.237.512.207.759.79.552 1.302-.207.513-.788.759-1.302.552-1.789-.724-3.683-1.091-5.628-1.091-5.452 0-10.122 2.674-13.148 7.529-.19.304-.516.471-.85.471z"/></g><g><path d="m47 17.109c-.361 0-.711-.196-.889-.54l-4-7.712c-.254-.49-.063-1.094.428-1.348.487-.254 1.094-.063 1.348.427l4 7.712c.254.49.063 1.094-.428 1.348-.146.077-.304.113-.459.113z"/></g><g><path d="m43.998 52.663c-.135 0-.272-.027-.404-.086-.505-.224-.732-.814-.509-1.319l3-6.773c.224-.504.813-.733 1.319-.509.505.224.732.814.509 1.319l-3 6.773c-.165.373-.531.595-.915.595z"/></g></g><g><g><path d="m10.007 11.501c-2.168 0-4.198-.854-5.716-2.403-.386-.395-.38-1.027.015-1.414.394-.386 1.027-.381 1.414.015 1.139 1.162 2.661 1.802 4.288 1.802 3.309 0 6-2.691 6-6 0-.552.448-1 1-1s1 .448 1 1c-.001 4.411-3.59 8-8.001 8z"/></g><g><path d="m1.003 45.89c-.371 0-.727-.207-.899-.563-.242-.496-.035-1.095.461-1.337 5.207-2.535 8.442-7.704 8.442-13.49s-3.234-10.957-8.438-13.494c-.497-.242-.703-.841-.461-1.337.242-.497.843-.703 1.337-.461 5.898 2.875 9.562 8.734 9.562 15.292s-3.666 12.416-9.566 15.289c-.141.068-.291.101-.438.101z"/></g><g><path d="m24.004 59.497c-.334 0-.66-.167-.85-.471-3.027-4.855-7.696-7.529-13.148-7.529-1.945 0-3.839.367-5.628 1.091-.51.207-1.095-.039-1.302-.552-.208-.512.04-1.095.552-1.302 2.028-.821 4.174-1.237 6.378-1.237 6.079 0 11.49 3.088 14.846 8.471.292.469.149 1.086-.32 1.378-.165.102-.347.151-.528.151z"/></g><g><path d="m1.006 17.109c-.155 0-.313-.036-.459-.112-.49-.254-.682-.858-.427-1.348l4-7.712c.254-.49.857-.682 1.348-.427.49.254.682.858.427 1.348l-4 7.712c-.178.343-.527.539-.889.539z"/></g><g><path d="m4.007 52.663c-.384 0-.75-.222-.915-.595l-3-6.773c-.224-.505.004-1.096.51-1.319.502-.225 1.095.004 1.319.509l3 6.773c.224.505-.004 1.096-.51 1.319-.131.059-.268.086-.404.086z"/></g></g><g><path d="m30.999 4.501h-13.996c-.552 0-1-.448-1-1s.448-1 1-1h13.996c.553 0 1 .448 1 1s-.447 1-1 1z"/></g></g><g><g><g><path d="m53.993 13.502c-4.411 0-8-3.589-8-8 0-.552.447-1 1-1s1 .448 1 1c0 3.309 2.691 6 6 6 1.626 0 3.149-.64 4.288-1.802.386-.395 1.019-.4 1.414-.015.395.387.4 1.02.014 1.414-1.518 1.549-3.548 2.403-5.716 2.403z"/></g><g><path d="m62.996 47.892c-.146 0-.296-.032-.437-.101-5.9-2.873-9.566-8.732-9.566-15.29s3.664-12.417 9.562-15.292c.502-.243 1.097-.035 1.337.461.242.496.036 1.095-.46 1.337-5.205 2.537-8.438 7.708-8.438 13.494s3.234 10.956 8.441 13.491c.497.242.703.841.462 1.337-.174.356-.53.563-.901.563z"/></g><g><path d="m39.996 61.499c-.181 0-.363-.049-.528-.151-.469-.292-.611-.909-.319-1.378 3.356-5.383 8.768-8.471 14.846-8.471 2.203 0 4.35.416 6.378 1.237.512.207.759.79.552 1.302-.207.513-.789.76-1.302.552-1.789-.724-3.683-1.091-5.628-1.091-5.452 0-10.122 2.674-13.148 7.529-.191.304-.517.471-.851.471z"/></g><g><path d="m62.994 19.11c-.361 0-.711-.196-.889-.54l-4-7.712c-.254-.49-.063-1.094.428-1.348.486-.254 1.094-.063 1.348.427l4 7.712c.254.49.063 1.094-.428 1.348-.146.077-.304.113-.459.113z"/></g><g><path d="m59.992 54.665c-.135 0-.272-.027-.404-.086-.505-.224-.732-.814-.509-1.319l3-6.773c.223-.504.813-.732 1.319-.509.505.224.732.814.509 1.319l-3 6.773c-.165.373-.531.595-.915.595z"/></g></g><g><g><path d="m32.572 8.919c-.115 0-.231-.02-.346-.062-.518-.191-.783-.766-.593-1.284.244-.662.367-1.359.367-2.072 0-.552.447-1 1-1s1 .448 1 1c0 .949-.165 1.879-.49 2.762-.148.406-.531.656-.938.656z"/></g><g><path d="m39.998 61.499c-.334 0-.66-.167-.85-.471-2.37-3.802-5.771-6.282-9.834-7.174-.54-.118-.881-.651-.762-1.19.118-.539.648-.88 1.191-.763 4.601 1.009 8.441 3.799 11.103 8.068.292.469.149 1.086-.319 1.378-.166.103-.348.152-.529.152z"/></g></g><g><path d="m46.993 6.502h-13.996c-.553 0-1-.448-1-1s.447-1 1-1h13.996c.553 0 1 .448 1 1s-.447 1-1 1z"/></g></g><g><path d="m23.998 11.501c-.552 0-1-.448-1-1v-2c0-.552.448-1 1-1s1 .448 1 1v2c0 .552-.448 1-1 1z"/></g><g><path d="m23.998 16.5c-.552 0-1-.448-1-1v-1.999c0-.552.448-1 1-1s1 .448 1 1v1.999c0 .552-.448 1-1 1z"/></g><g><path d="m23.998 21.5c-.552 0-1-.448-1-1v-2c0-.552.448-1 1-1s1 .448 1 1v2c0 .552-.448 1-1 1z"/></g><g><path d="m23.998 26.5c-.552 0-1-.447-1-1v-2c0-.552.448-1 1-1s1 .448 1 1v2c0 .553-.448 1-1 1z"/></g><g><path d="m23.998 31.5c-.552 0-1-.447-1-1v-2c0-.553.448-1 1-1s1 .447 1 1v2c0 .553-.448 1-1 1z"/></g><g><path d="m23.998 36.501c-.552 0-1-.447-1-1v-2.001c0-.553.448-1 1-1s1 .447 1 1v2.001c0 .553-.448 1-1 1z"/></g><g><path d="m23.998 41.501c-.552 0-1-.447-1-1v-2c0-.553.448-1 1-1s1 .447 1 1v2c0 .553-.448 1-1 1z"/></g><g><path d="m23.998 46.501c-.552 0-1-.447-1-1v-2c0-.553.448-1 1-1s1 .447 1 1v2c0 .553-.448 1-1 1z"/></g><g><path d="m23.998 51.501c-.552 0-1-.447-1-1v-2c0-.553.448-1 1-1s1 .447 1 1v2c0 .553-.448 1-1 1z"/></g></g></svg>